<svg xmlns="http://www.w3.org/2000/svg" xmlns:xlink="http://www.w3.org/1999/xlink" width="100" zoomAndPan="magnify" viewBox="0 0 75 74.999997" height="100" preserveAspectRatio="xMidYMid meet" version="1.0"><defs><clipPath id="300090be11"><path d="M 32 70 L 43 70 L 43 73.886719 L 32 73.886719 Z M 32 70 " clip-rule="nonzero"/></clipPath><clipPath id="1494f3ad50"><path d="M 36 1.136719 L 39 1.136719 L 39 10 L 36 10 Z M 36 1.136719 " clip-rule="nonzero"/></clipPath><clipPath id="4f3e72aa4b"><path d="M 61 18 L 68.183594 18 L 68.183594 24 L 61 24 Z M 61 18 " clip-rule="nonzero"/></clipPath><clipPath id="e1b9818e9f"><path d="M 6.683594 18 L 14 18 L 14 24 L 6.683594 24 Z M 6.683594 18 " clip-rule="nonzero"/></clipPath></defs><path fill="#ffffff" d="M 47.4375 59.363281 L 40.90625 59.363281 L 40.90625 41.898438 C 40.90625 41.328125 40.480469 40.902344 39.910156 40.902344 C 39.484375 40.902344 39.058594 41.328125 39.058594 41.898438 L 39.058594 59.363281 L 36.078125 59.363281 L 36.078125 34.511719 C 36.078125 33.945312 35.652344 33.519531 35.082031 33.519531 C 34.515625 33.519531 34.089844 33.945312 34.089844 34.511719 L 34.089844 59.363281 L 27.558594 59.363281 C 25.851562 59.363281 24.574219 57.941406 24.574219 56.382812 L 24.574219 47.859375 C 20.316406 44.027344 17.902344 38.773438 17.902344 33.09375 C 17.902344 22.160156 26.703125 13.355469 37.496094 13.355469 C 48.289062 13.355469 57.09375 22.160156 57.09375 33.09375 C 57.09375 38.773438 54.679688 44.027344 50.417969 47.859375 L 50.417969 56.382812 C 50.417969 57.941406 49.140625 59.363281 47.4375 59.363281 Z M 51.414062 34.085938 C 50.988281 34.085938 50.5625 33.519531 50.5625 33.09375 C 50.5625 27.695312 47.152344 22.726562 42.042969 20.878906 C 41.472656 20.738281 41.332031 20.171875 41.472656 19.601562 C 41.617188 19.175781 42.183594 18.894531 42.75 19.035156 C 48.574219 21.164062 52.40625 26.84375 52.40625 33.09375 C 52.40625 33.519531 51.980469 34.085938 51.414062 34.085938 Z M 51.414062 34.085938 " fill-opacity="1" fill-rule="evenodd"/><path fill="#ffffff" d="M 44.457031 68.878906 L 30.539062 68.878906 C 28.835938 68.878906 27.273438 67.316406 27.273438 65.609375 L 27.273438 60.640625 C 27.414062 60.640625 27.414062 60.640625 27.558594 60.640625 L 47.4375 60.640625 C 47.578125 60.640625 47.578125 60.640625 47.722656 60.640625 L 47.722656 65.609375 C 47.722656 67.316406 46.160156 68.878906 44.457031 68.878906 Z M 44.457031 68.878906 " fill-opacity="1" fill-rule="evenodd"/><g clip-path="url(#300090be11)"><path fill="#ffffff" d="M 41.757812 73.847656 L 33.945312 73.847656 C 33.378906 73.847656 32.953125 73.421875 32.953125 72.851562 L 32.953125 70.15625 L 42.75 70.15625 L 42.75 72.851562 C 42.75 73.421875 42.324219 73.847656 41.757812 73.847656 Z M 41.757812 73.847656 " fill-opacity="1" fill-rule="evenodd"/></g><g clip-path="url(#1494f3ad50)"><path fill="#ffffff" d="M 37.496094 9.09375 C 36.929688 9.09375 36.503906 8.667969 36.503906 8.101562 L 36.503906 2.136719 C 36.503906 1.570312 36.929688 1.140625 37.496094 1.140625 C 38.066406 1.140625 38.492188 1.570312 38.492188 2.136719 L 38.492188 8.101562 C 38.492188 8.667969 38.066406 9.09375 37.496094 9.09375 Z M 37.496094 9.09375 " fill-opacity="1" fill-rule="evenodd"/></g><path fill="#ffffff" d="M 51.699219 12.785156 C 51.414062 12.785156 51.269531 12.785156 51.128906 12.785156 C 50.703125 12.503906 50.5625 11.792969 50.84375 11.367188 L 53.828125 6.253906 C 54.113281 5.6875 54.679688 5.542969 55.105469 5.828125 C 55.53125 6.113281 55.671875 6.679688 55.53125 7.25 L 52.40625 12.359375 C 52.265625 12.644531 51.980469 12.785156 51.699219 12.785156 Z M 51.699219 12.785156 " fill-opacity="1" fill-rule="evenodd"/><g clip-path="url(#4f3e72aa4b)"><path fill="#ffffff" d="M 61.921875 23.152344 C 61.636719 23.152344 61.355469 23.011719 61.210938 22.726562 C 60.925781 22.300781 61.070312 21.589844 61.496094 21.449219 L 66.75 18.464844 C 67.175781 18.183594 67.742188 18.324219 68.027344 18.75 C 68.3125 19.175781 68.167969 19.746094 67.601562 20.027344 L 62.488281 23.011719 C 62.347656 23.152344 62.207031 23.152344 61.921875 23.152344 Z M 61.921875 23.152344 " fill-opacity="1" fill-rule="evenodd"/></g><g clip-path="url(#e1b9818e9f)"><path fill="#ffffff" d="M 13.074219 23.152344 C 12.789062 23.152344 12.648438 23.152344 12.503906 23.011719 L 7.394531 20.027344 C 6.824219 19.746094 6.683594 19.175781 6.964844 18.75 C 7.25 18.324219 7.820312 18.183594 8.246094 18.464844 L 13.5 21.449219 C 13.925781 21.589844 14.066406 22.300781 13.78125 22.726562 C 13.640625 23.011719 13.355469 23.152344 13.074219 23.152344 Z M 13.074219 23.152344 " fill-opacity="1" fill-rule="evenodd"/></g><path fill="#ffffff" d="M 23.296875 12.785156 C 23.011719 12.785156 22.730469 12.644531 22.585938 12.359375 L 19.464844 7.25 C 19.320312 6.679688 19.464844 6.113281 19.890625 5.828125 C 20.316406 5.542969 20.882812 5.6875 21.167969 6.253906 L 24.148438 11.367188 C 24.433594 11.792969 24.292969 12.503906 23.863281 12.785156 C 23.722656 12.785156 23.582031 12.785156 23.296875 12.785156 Z M 23.296875 12.785156 " fill-opacity="1" fill-rule="evenodd"/><path fill="#ffffff" d="M 39.628906 65.609375 L 35.367188 65.609375 C 34.941406 65.609375 34.515625 65.183594 34.515625 64.757812 C 34.515625 64.191406 34.941406 63.765625 35.367188 63.765625 L 39.628906 63.765625 C 40.054688 63.765625 40.480469 64.191406 40.480469 64.757812 C 40.480469 65.183594 40.054688 65.609375 39.628906 65.609375 Z M 39.628906 65.609375 " fill-opacity="1" fill-rule="evenodd"/></svg>