<svg xmlns="http://www.w3.org/2000/svg" xmlns:xlink="http://www.w3.org/1999/xlink" width="100" zoomAndPan="magnify" viewBox="0 0 75 74.999997" height="100" preserveAspectRatio="xMidYMid meet" version="1.0"><defs><clipPath id="2d823b05a0"><path d="M 32 66 L 43 66 L 43 73.574219 L 32 73.574219 Z M 32 66 " clip-rule="nonzero"/></clipPath><clipPath id="49c2011d9b"><path d="M 36 1.574219 L 39 1.574219 L 39 10 L 36 10 Z M 36 1.574219 " clip-rule="nonzero"/></clipPath><clipPath id="f1da8bf887"><path d="M 60 18 L 67.800781 18 L 67.800781 24 L 60 24 Z M 60 18 " clip-rule="nonzero"/></clipPath><clipPath id="536ffbf973"><path d="M 7.050781 18 L 15 18 L 15 24 L 7.050781 24 Z M 7.050781 18 " clip-rule="nonzero"/></clipPath></defs><g clip-path="url(#2d823b05a0)"><path fill="#8666c6" d="M 41.625 73.566406 L 33.929688 73.566406 C 33.367188 73.566406 32.949219 73.144531 32.949219 72.582031 L 32.949219 67.660156 C 32.949219 67.097656 33.367188 66.675781 33.929688 66.675781 L 41.625 66.675781 C 42.1875 66.675781 42.605469 67.097656 42.605469 67.660156 L 42.605469 72.582031 C 42.605469 73.144531 42.1875 73.566406 41.625 73.566406 Z M 41.625 73.566406 " fill-opacity="1" fill-rule="evenodd"/></g><path fill="#cccccc" d="M 44.285156 68.644531 L 30.570312 68.644531 C 28.890625 68.644531 27.347656 67.097656 27.347656 65.414062 L 27.347656 58.242188 C 27.347656 57.679688 27.769531 57.257812 28.328125 57.257812 L 46.527344 57.257812 C 47.085938 57.257812 47.503906 57.679688 47.503906 58.242188 L 47.503906 65.414062 C 47.503906 67.097656 45.964844 68.644531 44.285156 68.644531 Z M 44.285156 68.644531 " fill-opacity="1" fill-rule="evenodd"/><path fill="#fed941" d="M 47.226562 59.226562 L 27.628906 59.226562 C 25.949219 59.226562 24.691406 57.820312 24.691406 56.273438 L 24.691406 47.835938 C 20.488281 44.042969 18.109375 38.839844 18.109375 33.214844 C 18.109375 22.390625 26.789062 13.671875 37.425781 13.671875 C 48.066406 13.671875 56.746094 22.390625 56.746094 33.214844 C 56.746094 38.839844 54.363281 44.042969 50.164062 47.835938 L 50.164062 56.273438 C 50.164062 57.820312 48.90625 59.226562 47.226562 59.226562 Z M 47.226562 59.226562 " fill-opacity="1" fill-rule="evenodd"/><path fill="#faa334" d="M 40.785156 59.226562 L 38.96875 59.226562 L 38.96875 41.933594 C 38.96875 41.371094 39.386719 40.949219 39.808594 40.949219 C 40.367188 40.949219 40.785156 41.371094 40.785156 41.933594 Z M 36.027344 59.226562 L 34.066406 59.226562 L 34.066406 34.621094 C 34.066406 34.058594 34.488281 33.636719 35.046875 33.636719 C 35.609375 33.636719 36.027344 34.058594 36.027344 34.621094 Z M 36.027344 59.226562 " fill-opacity="1" fill-rule="evenodd"/><path fill="#ffffff" d="M 51.144531 34.199219 C 50.726562 34.199219 50.304688 33.636719 50.304688 33.214844 C 50.304688 27.871094 46.945312 22.953125 41.90625 21.125 C 41.347656 20.984375 41.207031 20.421875 41.347656 19.859375 C 41.488281 19.4375 42.046875 19.15625 42.605469 19.296875 C 48.34375 21.40625 52.125 27.027344 52.125 33.214844 C 52.125 33.636719 51.703125 34.199219 51.144531 34.199219 Z M 51.144531 34.199219 " fill-opacity="1" fill-rule="evenodd"/><g clip-path="url(#49c2011d9b)"><path fill="#faa334" d="M 37.425781 9.453125 C 36.867188 9.453125 36.449219 9.03125 36.449219 8.46875 L 36.449219 2.566406 C 36.449219 2.003906 36.867188 1.582031 37.425781 1.582031 C 37.988281 1.582031 38.40625 2.003906 38.40625 2.566406 L 38.40625 8.46875 C 38.40625 9.03125 37.988281 9.453125 37.425781 9.453125 Z M 37.425781 9.453125 " fill-opacity="1" fill-rule="evenodd"/></g><path fill="#faa334" d="M 51.425781 13.109375 C 51.144531 13.109375 51.003906 13.109375 50.863281 13.109375 C 50.445312 12.828125 50.304688 12.125 50.585938 11.703125 L 53.523438 6.640625 C 53.804688 6.078125 54.363281 5.9375 54.785156 6.21875 C 55.203125 6.5 55.34375 7.0625 55.203125 7.625 L 52.125 12.6875 C 51.984375 12.96875 51.703125 13.109375 51.425781 13.109375 Z M 51.425781 13.109375 " fill-opacity="1" fill-rule="evenodd"/><g clip-path="url(#f1da8bf887)"><path fill="#faa334" d="M 61.503906 23.375 C 61.222656 23.375 60.945312 23.234375 60.804688 22.953125 C 60.523438 22.53125 60.664062 21.828125 61.082031 21.6875 L 66.261719 18.734375 C 66.683594 18.453125 67.242188 18.59375 67.523438 19.015625 C 67.800781 19.4375 67.664062 20 67.101562 20.28125 L 62.0625 23.234375 C 61.921875 23.375 61.785156 23.375 61.503906 23.375 Z M 61.503906 23.375 " fill-opacity="1" fill-rule="evenodd"/></g><g clip-path="url(#536ffbf973)"><path fill="#faa334" d="M 13.351562 23.375 C 13.070312 23.375 12.929688 23.375 12.792969 23.234375 L 7.753906 20.28125 C 7.191406 20 7.050781 19.4375 7.332031 19.015625 C 7.613281 18.59375 8.171875 18.453125 8.59375 18.734375 L 13.769531 21.6875 C 14.191406 21.828125 14.332031 22.53125 14.050781 22.953125 C 13.910156 23.234375 13.632812 23.375 13.351562 23.375 Z M 13.351562 23.375 " fill-opacity="1" fill-rule="evenodd"/></g><path fill="#faa334" d="M 23.429688 13.109375 C 23.148438 13.109375 22.871094 12.96875 22.730469 12.6875 L 19.648438 7.625 C 19.511719 7.0625 19.648438 6.5 20.070312 6.21875 C 20.488281 5.9375 21.050781 6.078125 21.328125 6.640625 L 24.269531 11.703125 C 24.550781 12.125 24.410156 12.828125 23.988281 13.109375 C 23.851562 13.109375 23.710938 13.109375 23.429688 13.109375 Z M 23.429688 13.109375 " fill-opacity="1" fill-rule="evenodd"/><path fill="#a6a6a6" d="M 39.527344 63.867188 L 35.328125 63.867188 C 34.90625 63.867188 34.488281 63.445312 34.488281 63.023438 C 34.488281 62.460938 34.90625 62.039062 35.328125 62.039062 L 39.527344 62.039062 C 39.945312 62.039062 40.367188 62.460938 40.367188 63.023438 C 40.367188 63.445312 39.945312 63.867188 39.527344 63.867188 Z M 39.527344 63.867188 " fill-opacity="1" fill-rule="evenodd"/><path fill="#ffedb3" d="M 21.75 33.636719 C 21.75 22.8125 30.429688 14.09375 41.066406 14.09375 C 41.207031 14.09375 41.347656 14.09375 41.347656 14.09375 C 40.085938 13.8125 38.828125 13.671875 37.425781 13.671875 C 26.789062 13.671875 18.109375 22.390625 18.109375 33.214844 C 18.109375 38.839844 20.488281 44.042969 24.691406 47.835938 L 24.691406 56.273438 C 24.691406 57.820312 25.808594 59.085938 27.347656 59.226562 L 28.328125 59.226562 C 28.328125 58.945312 28.328125 56.835938 28.328125 56.695312 L 28.328125 48.257812 C 24.128906 44.464844 21.75 39.261719 21.75 33.636719 Z M 21.75 33.636719 " fill-opacity="1" fill-rule="evenodd"/></svg>