<svg version="1.2" xmlns="http://www.w3.org/2000/svg" viewBox="0 0 375 376" width="20" height="20">
	<title>2-svg</title>
	<defs>
		<clipPath clipPathUnits="userSpaceOnUse" id="cp1">
			<path d="m11.44 12.44h351.75v351.75h-351.75z"/>
		</clipPath>
	</defs>
	<style>
		.s0 { fill: #ffffff } 
	</style>
	<g id="Clip-Path" clip-path="url(#cp1)">
		<g id="Layer">
			<path id="Layer" fill-rule="evenodd" class="s0" d="m363.6 188.5c0 97.2-78.9 176.1-176.1 176.1-97.2 0-176.1-78.9-176.1-176.1 0-97.2 78.9-176.1 176.1-176.1 97.2 0 176.1 78.9 176.1 176.1zm-71.3-46.8c-7.6-7.7-20-7.7-27.7 0l-76.9 76.9-76.7-76.6c-7.6-7.7-20-7.7-27.7 0-7.6 7.6-7.6 20 0 27.7l83.4 83.3c5.8 5.8 13.4 8.7 21 8.7 7.6 0 15.2-2.9 21-8.7l83.6-83.6c7.7-7.7 7.7-20.1 0-27.7z"/>
		</g>
	</g>
</svg>