<svg version="1.2" xmlns="http://www.w3.org/2000/svg" viewBox="0 0 75 76" width="35" height="35">
	<title>6-svg</title>
	<defs>
		<clipPath clipPathUnits="userSpaceOnUse" id="cp1">
			<path d="m4 4.9h67v67.5h-67z"/>
		</clipPath>
	</defs>
	<style>
		.s0 { fill: #ffffff } 
	</style>
	<g id="Clip-Path" clip-path="url(#cp1)">
		<g id="Layer">
			<path id="Layer" class="s0" d="m37.2 4.9c-9.2 0-17.7 3.7-23.8 9.9l-6.4-4.6c-1.5-1.1-2.8-0.4-2.8 1.4v23.6c0 1.9 1.5 2.9 3.2 2.3l22.4-7.5c1.7-0.6 1.9-2 0.4-3.1l-7.3-5.3c3.9-3.3 8.9-5.3 14.3-5.3 12.3 0 22.2 10 22.2 22.2 0 12.2-9.9 22.2-22.2 22.2-10.2 0-19.3-7.2-21.6-17.2l-10.8 3.6c3.9 14.6 17.3 25 32.4 25 18.6 0 33.6-15.1 33.6-33.6 0-18.5-15-33.6-33.6-33.6z"/>
		</g>
	</g>
</svg>