<svg version="1.2" xmlns="http://www.w3.org/2000/svg" viewBox="0 0 75 76" width="35" height="35">
	<title>5-svg</title>
	<defs>
		<clipPath clipPathUnits="userSpaceOnUse" id="cp1">
			<path d="m4 4.9h67.4v67.5h-67.4z"/>
		</clipPath>
	</defs>
	<style>
		.s0 { fill: #000000 } 
	</style>
	<g id="Clip-Path" clip-path="url(#cp1)">
		<g id="Layer">
			<path id="Layer" class="s0" d="m37.4 4.9c-9.3 0-17.8 3.7-24 10l-6.4-4.7c-1.5-1-2.8-0.4-2.8 1.5v23.7c0 1.8 1.5 2.9 3.2 2.3l22.5-7.6c1.8-0.6 2-2 0.4-3.1l-7.4-5.3c4-3.4 9-5.3 14.5-5.3 12.3 0 22.3 10 22.3 22.2 0 12.3-10 22.3-22.3 22.3-10.3 0-19.4-7.2-21.7-17.2l-10.9 3.6c3.9 14.6 17.4 25.1 32.6 25.1 18.6 0 33.7-15.1 33.7-33.8 0-18.6-15.1-33.7-33.7-33.7z"/>
		</g>
	</g>
</svg>