<svg version="1.2" xmlns="http://www.w3.org/2000/svg" viewBox="0 0 75 76" width="35" height="35">
	<title>3-svg</title>
	<defs>
		<clipPath clipPathUnits="userSpaceOnUse" id="cp1">
			<path d="m32 71h11v3.89h-11z"/>
		</clipPath>
		<clipPath clipPathUnits="userSpaceOnUse" id="cp2">
			<path d="m36 2.14h3v8.86h-3z"/>
		</clipPath>
		<clipPath clipPathUnits="userSpaceOnUse" id="cp3">
			<path d="m61 19h7.18v6h-7.18z"/>
		</clipPath>
		<clipPath clipPathUnits="userSpaceOnUse" id="cp4">
			<path d="m6.68 19h7.32v6h-7.32z"/>
		</clipPath>
	</defs>
	<style>
		.s0 { fill: #ffffff } 
	</style>
	<path id="Layer" fill-rule="evenodd" class="s0" d="m47.4 60.4h-6.5v-17.5c0-0.6-0.4-1-1-1-0.4 0-0.8 0.4-0.8 1v17.5h-3v-24.9c0-0.6-0.4-1-1-1-0.6 0-1 0.4-1 1v24.9h-6.5c-1.7 0-3-1.5-3-3v-8.5c-4.3-3.9-6.7-9.1-6.7-14.8 0-10.9 8.8-19.7 19.6-19.7 10.8 0 19.6 8.8 19.6 19.7 0 5.7-2.4 10.9-6.7 14.8v8.5c0 1.5-1.3 3-3 3zm5-26.3c0-6.3-3.8-11.9-9.7-14.1-0.5-0.1-1.1 0.2-1.2 0.6-0.2 0.6 0 1.1 0.5 1.3 5.2 1.8 8.6 6.8 8.6 12.2 0 0.4 0.4 1 0.8 1 0.6 0 1-0.6 1-1z"/>
	<path id="Layer" fill-rule="evenodd" class="s0" d="m44.5 69.9h-14c-1.7 0-3.2-1.6-3.2-3.3v-5c0.1 0 0.1 0 0.3 0h19.8c0.2 0 0.2 0 0.3 0v5c0 1.7-1.5 3.3-3.2 3.3z"/>
	<g id="Clip-Path" clip-path="url(#cp1)">
		<g id="Layer">
			<path id="Layer" fill-rule="evenodd" class="s0" d="m41.8 74.8h-7.9c-0.5 0-0.9-0.4-0.9-0.9v-2.7h9.8v2.7c0 0.5-0.5 0.9-1 0.9z"/>
		</g>
	</g>
	<g id="Clip-Path" clip-path="url(#cp2)">
		<g id="Layer">
			<path id="Layer" fill-rule="evenodd" class="s0" d="m37.5 10.1c-0.6 0-1-0.4-1-1v-6c0-0.5 0.4-1 1-1 0.6 0 1 0.5 1 1v6c0 0.6-0.4 1-1 1z"/>
		</g>
	</g>
	<path id="Layer" fill-rule="evenodd" class="s0" d="m51.7 13.8c-0.3 0-0.4 0-0.6 0-0.4-0.3-0.5-1-0.3-1.4l3-5.1c0.3-0.6 0.9-0.8 1.3-0.5 0.4 0.3 0.6 0.9 0.4 1.4l-3.1 5.2c-0.1 0.2-0.4 0.4-0.7 0.4z"/>
	<g id="Clip-Path" clip-path="url(#cp3)">
		<g id="Layer">
			<path id="Layer" fill-rule="evenodd" class="s0" d="m61.9 24.2c-0.3 0-0.5-0.2-0.7-0.5-0.3-0.4-0.1-1.1 0.3-1.3l5.3-2.9c0.4-0.3 0.9-0.2 1.2 0.3 0.3 0.4 0.2 0.9-0.4 1.2l-5.1 3c-0.2 0.2-0.3 0.2-0.6 0.2z"/>
		</g>
	</g>
	<g id="Clip-Path" clip-path="url(#cp4)">
		<g id="Layer">
			<path id="Layer" fill-rule="evenodd" class="s0" d="m13.1 24.2c-0.3 0-0.5 0-0.6-0.2l-5.1-3c-0.6-0.3-0.7-0.8-0.4-1.2 0.3-0.5 0.8-0.6 1.2-0.3l5.3 2.9c0.4 0.2 0.6 0.9 0.3 1.3-0.2 0.3-0.4 0.5-0.7 0.5z"/>
		</g>
	</g>
	<path id="Layer" fill-rule="evenodd" class="s0" d="m23.3 13.8c-0.3 0-0.6-0.2-0.7-0.4l-3.1-5.2c-0.2-0.5 0-1.1 0.4-1.4 0.4-0.3 1-0.1 1.3 0.5l2.9 5.1c0.3 0.4 0.2 1.1-0.2 1.4-0.2 0-0.3 0-0.6 0z"/>
	<path id="Layer" fill-rule="evenodd" class="s0" d="m39.6 66.6h-4.2c-0.5 0-0.9-0.4-0.9-0.8 0-0.6 0.4-1 0.9-1h4.2c0.5 0 0.9 0.4 0.9 1 0 0.4-0.4 0.8-0.9 0.8z"/>
</svg>