<svg version="1.2" xmlns="http://www.w3.org/2000/svg" viewBox="0 0 75 76" width="35" height="35">
	<title>4-svg</title>
	<defs>
		<clipPath clipPathUnits="userSpaceOnUse" id="cp1">
			<path d="m32 67h11v7.57h-11z"/>
		</clipPath>
		<clipPath clipPathUnits="userSpaceOnUse" id="cp2">
			<path d="m36 2.57h3v8.43h-3z"/>
		</clipPath>
		<clipPath clipPathUnits="userSpaceOnUse" id="cp3">
			<path d="m60 19h7.8v6h-7.8z"/>
		</clipPath>
		<clipPath clipPathUnits="userSpaceOnUse" id="cp4">
			<path d="m7.05 19h7.95v6h-7.95z"/>
		</clipPath>
	</defs>
	<style>
		.s0 { fill: #8666c6 } 
		.s1 { fill: #cccccc } 
		.s2 { fill: #fed941 } 
		.s3 { fill: #faa334 } 
		.s4 { fill: #ffffff } 
		.s5 { fill: #a6a6a6 } 
		.s6 { fill: #ffedb3 } 
	</style>
	<g id="Clip-Path" clip-path="url(#cp1)">
		<g id="Layer">
			<path id="Layer" fill-rule="evenodd" class="s0" d="m41.6 74.6h-7.7c-0.5 0-1-0.5-1-1v-4.9c0-0.6 0.5-1 1-1h7.7c0.6 0 1 0.4 1 1v4.9c0 0.5-0.4 1-1 1z"/>
		</g>
	</g>
	<path id="Layer" fill-rule="evenodd" class="s1" d="m44.3 69.6h-13.7c-1.7 0-3.3-1.5-3.3-3.2v-7.2c0-0.5 0.5-0.9 1-0.9h18.2c0.6 0 1 0.4 1 0.9v7.2c0 1.7-1.5 3.2-3.2 3.2z"/>
	<path id="Layer" fill-rule="evenodd" class="s2" d="m47.2 60.2h-19.6c-1.7 0-2.9-1.4-2.9-2.9v-8.5c-4.2-3.8-6.6-9-6.6-14.6 0-10.8 8.7-19.5 19.3-19.5 10.7 0 19.3 8.7 19.3 19.5 0 5.6-2.3 10.8-6.5 14.6v8.5c0 1.5-1.3 2.9-3 2.9z"/>
	<path id="Layer" fill-rule="evenodd" class="s3" d="m40.8 42.9c0-0.5-0.4-1-1-1-0.4 0-0.8 0.5-0.8 1v17.3h1.8zm-4.8-7.3c0-0.5-0.4-1-1-1-0.5 0-0.9 0.5-0.9 1v24.6h1.9z"/>
	<path id="Layer" fill-rule="evenodd" class="s4" d="m51.1 35.2c-0.4 0-0.8-0.6-0.8-1 0-5.3-3.4-10.2-8.4-12.1-0.6-0.1-0.7-0.7-0.6-1.2 0.2-0.5 0.7-0.7 1.3-0.6 5.7 2.1 9.5 7.7 9.5 13.9 0 0.4-0.4 1-1 1z"/>
	<g id="Clip-Path" clip-path="url(#cp2)">
		<g id="Layer">
			<path id="Layer" fill-rule="evenodd" class="s3" d="m37.4 10.5c-0.5 0-1-0.5-1-1v-5.9c0-0.6 0.5-1 1-1 0.6 0 1 0.4 1 1v5.9c0 0.5-0.4 1-1 1z"/>
		</g>
	</g>
	<path id="Layer" fill-rule="evenodd" class="s3" d="m51.4 14.1c-0.3 0-0.4 0-0.5 0-0.5-0.3-0.6-1-0.3-1.4l2.9-5.1c0.3-0.5 0.9-0.7 1.3-0.4 0.4 0.3 0.5 0.9 0.4 1.4l-3.1 5.1c-0.1 0.3-0.4 0.4-0.7 0.4z"/>
	<g id="Clip-Path" clip-path="url(#cp3)">
		<g id="Layer">
			<path id="Layer" fill-rule="evenodd" class="s3" d="m61.5 24.4c-0.3 0-0.6-0.2-0.7-0.4-0.3-0.5-0.1-1.2 0.3-1.3l5.2-3c0.4-0.2 0.9-0.1 1.2 0.3 0.3 0.4 0.2 1-0.4 1.3l-5 2.9c-0.2 0.2-0.3 0.2-0.6 0.2z"/>
		</g>
	</g>
	<g id="Clip-Path" clip-path="url(#cp4)">
		<g id="Layer">
			<path id="Layer" fill-rule="evenodd" class="s3" d="m13.4 24.4c-0.3 0-0.5 0-0.6-0.2l-5-2.9c-0.6-0.3-0.7-0.9-0.5-1.3 0.3-0.4 0.9-0.5 1.3-0.3l5.2 3c0.4 0.1 0.5 0.8 0.3 1.3-0.2 0.2-0.5 0.4-0.7 0.4z"/>
		</g>
	</g>
	<path id="Layer" fill-rule="evenodd" class="s3" d="m23.4 14.1c-0.3 0-0.5-0.1-0.7-0.4l-3.1-5.1c-0.1-0.5 0-1.1 0.5-1.4 0.4-0.3 1-0.1 1.2 0.4l3 5.1c0.3 0.4 0.1 1.1-0.3 1.4-0.1 0-0.3 0-0.6 0z"/>
	<path id="Layer" fill-rule="evenodd" class="s5" d="m39.5 64.9h-4.2c-0.4 0-0.8-0.5-0.8-0.9 0-0.5 0.4-1 0.8-1h4.2c0.4 0 0.9 0.5 0.9 1 0 0.4-0.5 0.9-0.9 0.9z"/>
	<path id="Layer" fill-rule="evenodd" class="s6" d="m21.8 34.6c-0.1-10.8 8.6-19.5 19.3-19.5 0.1 0 0.2 0 0.2 0-1.2-0.3-2.5-0.4-3.9-0.4-10.6 0-19.3 8.7-19.3 19.5 0 5.6 2.4 10.8 6.6 14.6v8.5c0 1.5 1.1 2.8 2.6 2.9h1c0-0.3 0-2.4 0-2.5v-8.4c-4.2-3.8-6.6-9-6.6-14.7z"/>
</svg>