<svg xmlns="http://www.w3.org/2000/svg" xmlns:xlink="http://www.w3.org/1999/xlink" width="500" zoomAndPan="magnify" viewBox="0 0 375 374.999991" height="500" preserveAspectRatio="xMidYMid meet" version="1.0"><defs><clipPath id="6ff0758a1f"><path d="M 57.484375 16.429688 L 317.734375 16.429688 L 317.734375 358.429688 L 57.484375 358.429688 Z M 57.484375 16.429688 " clip-rule="nonzero"/></clipPath><clipPath id="6d90de7a01"><path d="M 57.484375 56 L 317.734375 56 L 317.734375 65 L 57.484375 65 Z M 57.484375 56 " clip-rule="nonzero"/></clipPath><clipPath id="ed2ba0c468"><path d="M 57.484375 310 L 317.734375 310 L 317.734375 319 L 57.484375 319 Z M 57.484375 310 " clip-rule="nonzero"/></clipPath></defs><path fill="#ffffff" d="M 212.292969 45.003906 L 162.707031 45.003906 L 162.707031 36.300781 L 212.292969 36.300781 L 212.292969 45.003906 " fill-opacity="1" fill-rule="nonzero"/><g clip-path="url(#6ff0758a1f)"><path fill="#ffffff" d="M 82.050781 25.117188 C 73.523438 25.117188 66.585938 32.050781 66.585938 40.578125 L 66.585938 334.417969 C 66.585938 342.945312 73.523438 349.882812 82.050781 349.882812 L 292.949219 349.882812 C 301.476562 349.882812 308.410156 342.945312 308.410156 334.417969 L 308.410156 40.578125 C 308.410156 32.050781 301.476562 25.117188 292.949219 25.117188 Z M 292.949219 358.570312 L 82.050781 358.570312 C 68.726562 358.570312 57.902344 347.730469 57.902344 334.417969 L 57.902344 40.578125 C 57.902344 27.269531 68.726562 16.429688 82.050781 16.429688 L 292.949219 16.429688 C 306.273438 16.429688 317.097656 27.269531 317.097656 40.578125 L 317.097656 334.417969 C 317.097656 347.730469 306.273438 358.570312 292.949219 358.570312 " fill-opacity="1" fill-rule="nonzero"/></g><path fill="#ffffff" d="M 212.292969 338.695312 L 162.707031 338.695312 L 162.707031 329.996094 L 212.292969 329.996094 L 212.292969 338.695312 " fill-opacity="1" fill-rule="nonzero"/><g clip-path="url(#6d90de7a01)"><path fill="#ffffff" d="M 312.753906 64.875 L 62.246094 64.875 C 59.839844 64.875 57.902344 62.925781 57.902344 60.53125 C 57.902344 58.128906 59.839844 56.191406 62.246094 56.191406 L 312.753906 56.191406 C 315.160156 56.191406 317.097656 58.128906 317.097656 60.53125 C 317.097656 62.925781 315.160156 64.875 312.753906 64.875 " fill-opacity="1" fill-rule="nonzero"/></g><g clip-path="url(#ed2ba0c468)"><path fill="#ffffff" d="M 312.753906 318.808594 L 62.246094 318.808594 C 59.839844 318.808594 57.902344 316.871094 57.902344 314.464844 C 57.902344 312.074219 59.839844 310.121094 62.246094 310.121094 L 312.753906 310.121094 C 315.160156 310.121094 317.097656 312.074219 317.097656 314.464844 C 317.097656 316.871094 315.160156 318.808594 312.753906 318.808594 " fill-opacity="1" fill-rule="nonzero"/></g><path fill="#ffffff" d="M 269.1875 108.632812 L 105.8125 108.632812 C 103.40625 108.632812 101.46875 106.683594 101.46875 104.289062 C 101.46875 101.882812 103.40625 99.945312 105.8125 99.945312 L 269.1875 99.945312 C 271.589844 99.945312 273.53125 101.882812 273.53125 104.289062 C 273.53125 106.683594 271.589844 108.632812 269.1875 108.632812 " fill-opacity="1" fill-rule="nonzero"/><path fill="#ffffff" d="M 269.1875 141.457031 L 105.8125 141.457031 C 103.40625 141.457031 101.46875 139.519531 101.46875 137.113281 C 101.46875 134.722656 103.40625 132.769531 105.8125 132.769531 L 269.1875 132.769531 C 271.589844 132.769531 273.53125 134.722656 273.53125 137.113281 C 273.53125 139.519531 271.589844 141.457031 269.1875 141.457031 " fill-opacity="1" fill-rule="nonzero"/><path fill="#ffffff" d="M 269.1875 174.28125 L 105.8125 174.28125 C 103.40625 174.28125 101.46875 172.34375 101.46875 169.9375 C 101.46875 167.546875 103.40625 165.59375 105.8125 165.59375 L 269.1875 165.59375 C 271.589844 165.59375 273.53125 167.546875 273.53125 169.9375 C 273.53125 172.34375 271.589844 174.28125 269.1875 174.28125 " fill-opacity="1" fill-rule="nonzero"/><path fill="#ffffff" d="M 121.609375 248.695312 L 99.585938 248.695312 L 99.585938 219.867188 L 120.984375 219.867188 L 120.984375 224.828125 L 104.957031 224.828125 L 104.957031 231.335938 L 119.96875 231.335938 L 119.96875 236.253906 L 104.957031 236.253906 L 104.957031 243.738281 L 121.609375 243.738281 L 121.609375 248.695312 " fill-opacity="1" fill-rule="nonzero"/><path fill="#ffffff" d="M 140.480469 243.738281 L 146.164062 243.738281 C 149.835938 243.738281 151.683594 242.46875 151.683594 239.941406 C 151.683594 239.289062 151.589844 238.714844 151.402344 238.246094 C 151.199219 237.765625 150.878906 237.378906 150.414062 237.054688 C 149.945312 236.734375 149.316406 236.507812 148.554688 236.347656 C 147.78125 236.199219 146.816406 236.121094 145.667969 236.121094 L 140.480469 236.121094 Z M 140.480469 231.230469 L 145.628906 231.230469 C 147.296875 231.230469 148.527344 230.976562 149.328125 230.480469 C 150.132812 229.972656 150.519531 229.132812 150.519531 227.96875 C 150.519531 227.433594 150.425781 226.964844 150.25 226.578125 C 150.066406 226.175781 149.769531 225.855469 149.355469 225.601562 C 148.941406 225.335938 148.40625 225.148438 147.726562 225.015625 C 147.058594 224.894531 146.242188 224.828125 145.28125 224.828125 L 140.480469 224.828125 Z M 157.1875 239.941406 C 157.1875 242.804688 156.265625 244.980469 154.421875 246.464844 C 152.5625 247.949219 149.824219 248.695312 146.175781 248.695312 L 135.109375 248.695312 L 135.109375 219.867188 L 145.667969 219.867188 C 147.203125 219.867188 148.609375 220.054688 149.863281 220.417969 C 151.105469 220.777344 152.191406 221.285156 153.070312 221.96875 C 153.96875 222.636719 154.664062 223.449219 155.128906 224.414062 C 155.609375 225.375 155.863281 226.457031 155.863281 227.660156 C 155.863281 228.878906 155.636719 229.933594 155.183594 230.839844 C 154.730469 231.765625 154.035156 232.550781 153.085938 233.234375 C 153.78125 233.566406 154.394531 233.96875 154.902344 234.449219 C 155.410156 234.929688 155.839844 235.464844 156.1875 236.054688 C 156.519531 236.628906 156.773438 237.257812 156.949219 237.910156 C 157.109375 238.566406 157.1875 239.25 157.1875 239.941406 " fill-opacity="1" fill-rule="nonzero"/><path fill="#ffffff" d="M 183.289062 244.367188 C 184.519531 244.367188 185.640625 244.140625 186.671875 243.671875 C 187.699219 243.203125 188.59375 242.550781 189.332031 241.679688 C 190.078125 240.8125 190.652344 239.757812 191.054688 238.511719 C 191.46875 237.257812 191.683594 235.851562 191.683594 234.261719 C 191.683594 232.671875 191.46875 231.257812 191.054688 230 C 190.628906 228.757812 190.050781 227.699219 189.316406 226.84375 C 188.570312 225.988281 187.6875 225.347656 186.671875 224.894531 C 185.65625 224.441406 184.546875 224.226562 183.355469 224.226562 C 182.140625 224.226562 181.019531 224.453125 179.988281 224.90625 C 178.960938 225.363281 178.0625 226.015625 177.316406 226.886719 C 176.566406 227.742188 175.980469 228.796875 175.566406 230.039062 C 175.136719 231.28125 174.9375 232.699219 174.9375 234.261719 C 174.9375 235.851562 175.136719 237.257812 175.566406 238.511719 C 175.980469 239.757812 176.554688 240.8125 177.300781 241.679688 C 178.039062 242.550781 178.917969 243.203125 179.933594 243.671875 C 180.949219 244.140625 182.074219 244.367188 183.289062 244.367188 Z M 183.304688 219.414062 C 185.320312 219.414062 187.179688 219.777344 188.863281 220.484375 C 190.558594 221.191406 192.03125 222.195312 193.246094 223.492188 C 194.476562 224.789062 195.4375 226.351562 196.132812 228.183594 C 196.816406 230.011719 197.164062 232.042969 197.164062 234.261719 C 197.164062 236.46875 196.828125 238.488281 196.148438 240.304688 C 195.480469 242.121094 194.515625 243.683594 193.285156 244.996094 C 192.070312 246.316406 190.601562 247.332031 188.902344 248.054688 C 187.207031 248.789062 185.347656 249.152344 183.304688 249.152344 C 181.273438 249.152344 179.402344 248.789062 177.703125 248.070312 C 176.007812 247.347656 174.550781 246.332031 173.320312 245.035156 C 172.089844 243.726562 171.140625 242.160156 170.460938 240.332031 C 169.777344 238.5 169.445312 236.480469 169.445312 234.261719 C 169.445312 232.03125 169.792969 229.984375 170.484375 228.167969 C 171.167969 226.335938 172.128906 224.773438 173.359375 223.476562 C 174.601562 222.179688 176.058594 221.179688 177.757812 220.46875 C 179.453125 219.777344 181.296875 219.414062 183.304688 219.414062 " fill-opacity="1" fill-rule="nonzero"/><path fill="#ffffff" d="M 223.265625 244.367188 C 224.492188 244.367188 225.617188 244.140625 226.660156 243.671875 C 227.6875 243.203125 228.570312 242.550781 229.304688 241.679688 C 230.054688 240.8125 230.628906 239.757812 231.042969 238.511719 C 231.445312 237.257812 231.65625 235.851562 231.65625 234.261719 C 231.65625 232.671875 231.445312 231.257812 231.027344 230 C 230.613281 228.757812 230.027344 227.699219 229.292969 226.84375 C 228.554688 225.988281 227.675781 225.347656 226.660156 224.894531 C 225.628906 224.441406 224.535156 224.226562 223.34375 224.226562 C 222.128906 224.226562 221.003906 224.453125 219.964844 224.90625 C 218.933594 225.363281 218.050781 226.015625 217.289062 226.886719 C 216.542969 227.742188 215.953125 228.796875 215.539062 230.039062 C 215.125 231.28125 214.910156 232.699219 214.910156 234.261719 C 214.910156 235.851562 215.125 237.257812 215.539062 238.511719 C 215.953125 239.757812 216.527344 240.8125 217.277344 241.679688 C 218.011719 242.550781 218.894531 243.203125 219.910156 243.671875 C 220.9375 244.140625 222.046875 244.367188 223.265625 244.367188 Z M 223.277344 219.414062 C 225.296875 219.414062 227.152344 219.777344 228.851562 220.484375 C 230.546875 221.191406 232.003906 222.195312 233.234375 223.492188 C 234.464844 224.789062 235.414062 226.351562 236.109375 228.183594 C 236.804688 230.011719 237.148438 232.042969 237.148438 234.261719 C 237.148438 236.46875 236.804688 238.488281 236.132812 240.304688 C 235.453125 242.121094 234.492188 243.683594 233.273438 244.996094 C 232.042969 246.316406 230.574219 247.332031 228.878906 248.054688 C 227.195312 248.789062 225.324219 249.152344 223.277344 249.152344 C 221.246094 249.152344 219.375 248.789062 217.675781 248.070312 C 215.980469 247.347656 214.523438 246.332031 213.292969 245.035156 C 212.0625 243.726562 211.117188 242.160156 210.433594 240.332031 C 209.765625 238.5 209.417969 236.480469 209.417969 234.261719 C 209.417969 232.03125 209.765625 229.984375 210.460938 228.167969 C 211.140625 226.335938 212.105469 224.773438 213.347656 223.476562 C 214.578125 222.179688 216.046875 221.179688 217.746094 220.46875 C 219.441406 219.777344 221.285156 219.414062 223.277344 219.414062 " fill-opacity="1" fill-rule="nonzero"/><path fill="#ffffff" d="M 275.414062 248.695312 L 268.519531 248.695312 L 259.203125 235.640625 L 255.996094 238.78125 L 255.996094 248.695312 L 250.621094 248.695312 L 250.621094 219.867188 L 255.996094 219.867188 L 255.996094 232.003906 L 267.96875 219.867188 L 275.320312 219.867188 L 263.011719 231.910156 L 275.414062 248.695312 " fill-opacity="1" fill-rule="nonzero"/></svg>